<svg width="33" height="33" viewBox="0 0 518 432" fill="none" xmlns="http://www.w3.org/2000/svg">
<path d="M390.703 144.322C405.573 144.322 416.189 155.743 422.466 167.919C429.059 180.708 432.829 197.665 432.829 215.827C432.829 233.989 429.038 250.946 422.466 263.735C416.189 275.911 405.573 287.331 390.703 287.331C375.832 287.331 365.216 275.911 358.939 263.735C352.367 250.946 348.576 233.989 348.576 215.827C348.576 197.665 352.367 180.708 358.939 167.919C365.216 155.763 375.832 144.322 390.703 144.322Z" fill="#0F79F3"/>
<path fill-rule="evenodd" clip-rule="evenodd" d="M248.778 11.3439C283.385 -1.05698 329.071 -6.59337 406.332 12.1408C440.854 20.517 466.783 46.5447 483.592 75.882C504.697 112.737 517.083 162.26 517.083 215.827C517.083 269.414 504.697 318.916 483.592 355.771C466.762 385.109 440.833 411.136 406.332 419.512C329.071 438.246 283.385 432.71 248.778 420.329L241.532 417.551C239.199 416.614 236.882 415.64 234.581 414.629C205.156 401.697 181.123 374.301 164.609 340.306C155.824 322.223 148.906 301.777 144.319 279.595H144.315C142.851 273.323 137.951 266.06 130.259 265.914V265.911H89.5828C77.7659 265.911 68.1864 256.62 68.1864 245.158C68.1864 233.697 77.7659 224.405 89.5828 224.405H193.508C205.325 224.405 214.905 215.114 214.905 203.653C214.905 192.191 205.325 182.9 193.508 182.9H21.3964C9.5795 182.9 0 173.608 0 162.147C5.65168e-05 150.685 9.57954 141.394 21.3964 141.394H226.896C238.713 141.394 248.292 132.102 248.292 120.641C248.292 109.179 238.713 99.8878 226.896 99.8878H66.704C54.8871 99.8878 45.3076 90.5964 45.3076 79.1349C45.3076 67.6734 54.8871 58.3819 66.704 58.3819H169.055C179.234 58.0566 189.155 51.2726 195.624 45.3432C207.155 33.0766 220.214 23.3388 234.56 17.044C236.835 16.0225 239.152 15.0417 241.511 14.102L248.778 11.3439ZM390.703 52.3879C372.736 52.3879 352.052 65.3404 334.653 95.7401C317.613 125.445 306.449 167.857 306.449 215.827C306.449 263.796 317.613 306.208 334.653 335.913C352.052 366.313 372.736 379.265 390.703 379.265C408.67 379.265 429.354 366.313 446.752 335.913C463.792 306.208 474.956 263.796 474.956 215.827C474.956 167.857 463.792 125.445 446.752 95.7401C429.354 65.3404 408.67 52.3879 390.703 52.3879Z" fill="#0F79F3"/>
</svg>
