<svg width="113" height="133" viewBox="0 0 113 133" fill="none" xmlns="http://www.w3.org/2000/svg">
<path d="M28.6687 5.47038C29.3437 5.15788 30.0312 4.85788 30.7312 4.57038L32.8875 3.72664C43.1563 -0.0671148 56.7125 -1.76087 79.6375 3.97038C89.8812 6.53288 97.575 14.4954 102.562 23.4704C108.825 34.7454 112.5 49.8954 112.5 66.2829C112.5 82.6766 108.825 97.8204 102.562 109.095C97.5687 118.07 89.875 126.033 79.6375 128.595C56.7125 134.327 43.1563 132.633 32.8875 128.845L30.7375 127.995C30.0452 127.709 29.3576 127.411 28.675 127.102C19.9437 123.145 12.8125 114.764 7.9125 104.364C2.95625 93.8454 0 80.7141 0 66.2829C0 51.8516 2.95625 38.7204 7.9125 28.2016C12.8125 17.8016 19.9375 9.42038 28.6687 5.47038ZM75 16.2829C69.6688 16.2829 63.5312 20.2454 58.3687 29.5454C53.3125 38.6329 50 51.6079 50 66.2829C50 80.9579 53.3125 93.9329 58.3687 103.02C63.5312 112.32 69.6688 116.283 75 116.283C80.3312 116.283 86.4687 112.32 91.6312 103.02C96.6875 93.9329 100 80.9579 100 66.2829C100 51.6079 96.6875 38.6329 91.6312 29.5454C86.4687 20.2454 80.3312 16.2829 75 16.2829ZM75 44.4079C79.4125 44.4079 82.5625 47.9016 84.425 51.6266C86.3812 55.5391 87.5 60.7266 87.5 66.2829C87.5 71.8391 86.375 77.0266 84.425 80.9391C82.5625 84.6641 79.4125 88.1579 75 88.1579C70.5875 88.1579 67.4375 84.6641 65.575 80.9391C63.625 77.0266 62.5 71.8391 62.5 66.2829C62.5 60.7266 63.625 55.5391 65.575 51.6266C67.4375 47.9079 70.5875 44.4079 75 44.4079Z" fill="#0F79F3"/>
</svg>
